<mxfile host="Electron" modified="2024-03-12T23:50:36.047Z" agent="Mozilla/5.0 (Windows NT 10.0; Win64; x64) AppleWebKit/537.36 (KHTML, like Gecko) draw.io/24.0.4 Chrome/120.0.6099.109 Electron/28.1.0 Safari/537.36" etag="QCkGtCi8PXfWWNqd6Zkr" version="24.0.4" type="device">
  <diagram id="C5RBs43oDa-KdzZeNtuy" name="Page-1">
    <mxGraphModel dx="2336" dy="888" grid="1" gridSize="10" guides="1" tooltips="1" connect="1" arrows="1" fold="1" page="1" pageScale="1" pageWidth="827" pageHeight="1169" math="0" shadow="0">
      <root>
        <mxCell id="WIyWlLk6GJQsqaUBKTNV-0" />
        <mxCell id="WIyWlLk6GJQsqaUBKTNV-1" parent="WIyWlLk6GJQsqaUBKTNV-0" />
        <mxCell id="pMVwF3DRIxQIzpTaGjE7-0" value="Player" style="swimlane;fontStyle=1;align=center;verticalAlign=top;childLayout=stackLayout;horizontal=1;startSize=26;horizontalStack=0;resizeParent=1;resizeParentMax=0;resizeLast=0;collapsible=1;marginBottom=0;whiteSpace=wrap;html=1;fillColor=#dae8fc;strokeColor=#6c8ebf;" parent="WIyWlLk6GJQsqaUBKTNV-1" vertex="1">
          <mxGeometry x="126" y="1035" width="210" height="350" as="geometry" />
        </mxCell>
        <mxCell id="pMVwF3DRIxQIzpTaGjE7-1" value="- name: String&lt;br&gt;- isScared: boolean&lt;br&gt;- isAwake: bookean&lt;br&gt;- winkCount: int&lt;br&gt;- color: int&lt;br&gt;- hand: ArrayList&amp;lt;Card&amp;gt;&lt;br&gt;- zInfiniteCount: int&lt;br&gt;- zRegularCount: int&lt;br&gt;- score: Score" style="text;strokeColor=none;fillColor=none;align=left;verticalAlign=top;spacingLeft=4;spacingRight=4;overflow=hidden;rotatable=0;points=[[0,0.5],[1,0.5]];portConstraint=eastwest;whiteSpace=wrap;html=1;" parent="pMVwF3DRIxQIzpTaGjE7-0" vertex="1">
          <mxGeometry y="26" width="210" height="144" as="geometry" />
        </mxCell>
        <mxCell id="pMVwF3DRIxQIzpTaGjE7-2" value="" style="line;strokeWidth=1;fillColor=none;align=left;verticalAlign=middle;spacingTop=-1;spacingLeft=3;spacingRight=3;rotatable=0;labelPosition=right;points=[];portConstraint=eastwest;strokeColor=inherit;" parent="pMVwF3DRIxQIzpTaGjE7-0" vertex="1">
          <mxGeometry y="170" width="210" height="8" as="geometry" />
        </mxCell>
        <mxCell id="pMVwF3DRIxQIzpTaGjE7-3" value="+ getName(): String&lt;br&gt;+ isScared(): boolean&lt;br&gt;+ toggleScare(): void&lt;br&gt;+ isAwake(): boolean&lt;br&gt;+ toggleAwake(): void&lt;br&gt;+ zCount(): int[]&lt;br&gt;+ hasWink(int): boolean&lt;br&gt;+ getColor(): int&lt;br&gt;+ setColor(): int&lt;br&gt;+ addCard(Card): void&lt;br&gt;+ removeCard(Card): void" style="text;strokeColor=none;fillColor=none;align=left;verticalAlign=top;spacingLeft=4;spacingRight=4;overflow=hidden;rotatable=0;points=[[0,0.5],[1,0.5]];portConstraint=eastwest;whiteSpace=wrap;html=1;" parent="pMVwF3DRIxQIzpTaGjE7-0" vertex="1">
          <mxGeometry y="178" width="210" height="172" as="geometry" />
        </mxCell>
        <mxCell id="pMVwF3DRIxQIzpTaGjE7-4" value="&lt;div&gt;&lt;span style=&quot;font-weight: normal;&quot;&gt;&lt;i&gt;&amp;lt;&amp;lt;interface&amp;gt;&amp;gt;&amp;nbsp;&lt;/i&gt;&lt;/span&gt;&lt;/div&gt;&lt;div&gt;&lt;span style=&quot;background-color: initial;&quot;&gt;Board&lt;/span&gt;&lt;/div&gt;" style="swimlane;fontStyle=1;align=center;verticalAlign=top;childLayout=stackLayout;horizontal=1;startSize=40;horizontalStack=0;resizeParent=1;resizeParentMax=0;resizeLast=0;collapsible=1;marginBottom=0;whiteSpace=wrap;html=1;fillColor=#dae8fc;strokeColor=#6c8ebf;" parent="WIyWlLk6GJQsqaUBKTNV-1" vertex="1">
          <mxGeometry x="134.5" y="650" width="365.5" height="150" as="geometry" />
        </mxCell>
        <mxCell id="pMVwF3DRIxQIzpTaGjE7-5" value="- characters: Dictionary&amp;lt;Integer, ArrayList&amp;lt;Character&amp;gt;&amp;gt;&lt;br&gt;- tiles: Tile[]" style="text;strokeColor=none;fillColor=none;align=left;verticalAlign=top;spacingLeft=4;spacingRight=4;overflow=hidden;rotatable=0;points=[[0,0.5],[1,0.5]];portConstraint=eastwest;whiteSpace=wrap;html=1;" parent="pMVwF3DRIxQIzpTaGjE7-4" vertex="1">
          <mxGeometry y="40" width="365.5" height="34" as="geometry" />
        </mxCell>
        <mxCell id="pMVwF3DRIxQIzpTaGjE7-6" value="" style="line;strokeWidth=1;fillColor=none;align=left;verticalAlign=middle;spacingTop=-1;spacingLeft=3;spacingRight=3;rotatable=0;labelPosition=right;points=[];portConstraint=eastwest;strokeColor=inherit;" parent="pMVwF3DRIxQIzpTaGjE7-4" vertex="1">
          <mxGeometry y="74" width="365.5" height="8" as="geometry" />
        </mxCell>
        <mxCell id="pMVwF3DRIxQIzpTaGjE7-7" value="+ getTiles(): Tile[]&lt;br&gt;+ getCharacters(): Dictionary&amp;lt;Integer, ArrayList&amp;lt;Character&amp;gt;&amp;gt;&lt;br&gt;+ getCharsAt(int): ArrayList&amp;lt;Character&amp;gt;&lt;br&gt;+ hasConflict(int): boolean" style="text;strokeColor=none;fillColor=none;align=left;verticalAlign=top;spacingLeft=4;spacingRight=4;overflow=hidden;rotatable=0;points=[[0,0.5],[1,0.5]];portConstraint=eastwest;whiteSpace=wrap;html=1;" parent="pMVwF3DRIxQIzpTaGjE7-4" vertex="1">
          <mxGeometry y="82" width="365.5" height="68" as="geometry" />
        </mxCell>
        <mxCell id="pMVwF3DRIxQIzpTaGjE7-12" value="Score" style="swimlane;fontStyle=1;align=center;verticalAlign=top;childLayout=stackLayout;horizontal=1;startSize=26;horizontalStack=0;resizeParent=1;resizeParentMax=0;resizeLast=0;collapsible=1;marginBottom=0;whiteSpace=wrap;html=1;fillColor=#dae8fc;strokeColor=#6c8ebf;" parent="WIyWlLk6GJQsqaUBKTNV-1" vertex="1">
          <mxGeometry x="-60" y="1035" width="160" height="150" as="geometry" />
        </mxCell>
        <mxCell id="pMVwF3DRIxQIzpTaGjE7-13" value="- player: Player&lt;br&gt;- pillowModifier: int&lt;br&gt;- pillowPosition: int&lt;br&gt;- playerPosition: int" style="text;strokeColor=none;fillColor=none;align=left;verticalAlign=top;spacingLeft=4;spacingRight=4;overflow=hidden;rotatable=0;points=[[0,0.5],[1,0.5]];portConstraint=eastwest;whiteSpace=wrap;html=1;" parent="pMVwF3DRIxQIzpTaGjE7-12" vertex="1">
          <mxGeometry y="26" width="160" height="74" as="geometry" />
        </mxCell>
        <mxCell id="pMVwF3DRIxQIzpTaGjE7-14" value="" style="line;strokeWidth=1;fillColor=none;align=left;verticalAlign=middle;spacingTop=-1;spacingLeft=3;spacingRight=3;rotatable=0;labelPosition=right;points=[];portConstraint=eastwest;strokeColor=inherit;" parent="pMVwF3DRIxQIzpTaGjE7-12" vertex="1">
          <mxGeometry y="100" width="160" height="8" as="geometry" />
        </mxCell>
        <mxCell id="pMVwF3DRIxQIzpTaGjE7-15" value="+ movePillow(): void&lt;br&gt;+ won(): boolean&lt;br&gt;" style="text;strokeColor=none;fillColor=none;align=left;verticalAlign=top;spacingLeft=4;spacingRight=4;overflow=hidden;rotatable=0;points=[[0,0.5],[1,0.5]];portConstraint=eastwest;whiteSpace=wrap;html=1;" parent="pMVwF3DRIxQIzpTaGjE7-12" vertex="1">
          <mxGeometry y="108" width="160" height="42" as="geometry" />
        </mxCell>
        <mxCell id="pMVwF3DRIxQIzpTaGjE7-28" value="Nightmare" style="swimlane;fontStyle=1;align=center;verticalAlign=top;childLayout=stackLayout;horizontal=1;startSize=26;horizontalStack=0;resizeParent=1;resizeParentMax=0;resizeLast=0;collapsible=1;marginBottom=0;whiteSpace=wrap;html=1;fillColor=#dae8fc;strokeColor=#6c8ebf;" parent="WIyWlLk6GJQsqaUBKTNV-1" vertex="1">
          <mxGeometry x="431" y="1035" width="228" height="100" as="geometry" />
        </mxCell>
        <mxCell id="pMVwF3DRIxQIzpTaGjE7-29" value="- cards: ArrayList&amp;lt;NightmareCard&amp;gt;" style="text;strokeColor=none;fillColor=none;align=left;verticalAlign=top;spacingLeft=4;spacingRight=4;overflow=hidden;rotatable=0;points=[[0,0.5],[1,0.5]];portConstraint=eastwest;whiteSpace=wrap;html=1;" parent="pMVwF3DRIxQIzpTaGjE7-28" vertex="1">
          <mxGeometry y="26" width="228" height="26" as="geometry" />
        </mxCell>
        <mxCell id="pMVwF3DRIxQIzpTaGjE7-30" value="" style="line;strokeWidth=1;fillColor=none;align=left;verticalAlign=middle;spacingTop=-1;spacingLeft=3;spacingRight=3;rotatable=0;labelPosition=right;points=[];portConstraint=eastwest;strokeColor=inherit;" parent="pMVwF3DRIxQIzpTaGjE7-28" vertex="1">
          <mxGeometry y="52" width="228" height="8" as="geometry" />
        </mxCell>
        <mxCell id="pMVwF3DRIxQIzpTaGjE7-31" value="+ getCards(): ArrayList&amp;lt;NightmareCard&amp;gt;&lt;br&gt;+ jump(Board, int)" style="text;strokeColor=none;fillColor=none;align=left;verticalAlign=top;spacingLeft=4;spacingRight=4;overflow=hidden;rotatable=0;points=[[0,0.5],[1,0.5]];portConstraint=eastwest;whiteSpace=wrap;html=1;" parent="pMVwF3DRIxQIzpTaGjE7-28" vertex="1">
          <mxGeometry y="60" width="228" height="40" as="geometry" />
        </mxCell>
        <mxCell id="pMVwF3DRIxQIzpTaGjE7-44" value="&lt;span style=&quot;font-weight: normal;&quot;&gt;&lt;i&gt;&amp;lt;&amp;lt;Interface&amp;gt;&amp;gt;&lt;/i&gt;&lt;/span&gt;&lt;br&gt;DreamTile" style="swimlane;fontStyle=1;align=center;verticalAlign=top;childLayout=stackLayout;horizontal=1;startSize=40;horizontalStack=0;resizeParent=1;resizeParentMax=0;resizeLast=0;collapsible=1;marginBottom=0;whiteSpace=wrap;html=1;fillColor=#dae8fc;strokeColor=#6c8ebf;" parent="WIyWlLk6GJQsqaUBKTNV-1" vertex="1">
          <mxGeometry x="-385.5" y="790" width="160" height="104" as="geometry" />
        </mxCell>
        <mxCell id="pMVwF3DRIxQIzpTaGjE7-45" value="+ name: String&lt;div&gt;&lt;br&gt;&lt;/div&gt;" style="text;strokeColor=none;fillColor=none;align=left;verticalAlign=top;spacingLeft=4;spacingRight=4;overflow=hidden;rotatable=0;points=[[0,0.5],[1,0.5]];portConstraint=eastwest;whiteSpace=wrap;html=1;" parent="pMVwF3DRIxQIzpTaGjE7-44" vertex="1">
          <mxGeometry y="40" width="160" height="30" as="geometry" />
        </mxCell>
        <mxCell id="pMVwF3DRIxQIzpTaGjE7-46" value="" style="line;strokeWidth=1;fillColor=none;align=left;verticalAlign=middle;spacingTop=-1;spacingLeft=3;spacingRight=3;rotatable=0;labelPosition=right;points=[];portConstraint=eastwest;strokeColor=inherit;" parent="pMVwF3DRIxQIzpTaGjE7-44" vertex="1">
          <mxGeometry y="70" width="160" height="8" as="geometry" />
        </mxCell>
        <mxCell id="pMVwF3DRIxQIzpTaGjE7-47" value="+ useAbility(): void" style="text;strokeColor=none;fillColor=none;align=left;verticalAlign=top;spacingLeft=4;spacingRight=4;overflow=hidden;rotatable=0;points=[[0,0.5],[1,0.5]];portConstraint=eastwest;whiteSpace=wrap;html=1;" parent="pMVwF3DRIxQIzpTaGjE7-44" vertex="1">
          <mxGeometry y="78" width="160" height="26" as="geometry" />
        </mxCell>
        <mxCell id="pMVwF3DRIxQIzpTaGjE7-56" value="Initializer" style="swimlane;fontStyle=1;align=center;verticalAlign=top;childLayout=stackLayout;horizontal=1;startSize=26;horizontalStack=0;resizeParent=1;resizeParentMax=0;resizeLast=0;collapsible=1;marginBottom=0;whiteSpace=wrap;html=1;fillColor=#f8cecc;strokeColor=#b85450;" parent="WIyWlLk6GJQsqaUBKTNV-1" vertex="1">
          <mxGeometry x="-122" y="284" width="190" height="96" as="geometry" />
        </mxCell>
        <mxCell id="pMVwF3DRIxQIzpTaGjE7-58" value="" style="line;strokeWidth=1;fillColor=none;align=left;verticalAlign=middle;spacingTop=-1;spacingLeft=3;spacingRight=3;rotatable=0;labelPosition=right;points=[];portConstraint=eastwest;strokeColor=inherit;" parent="pMVwF3DRIxQIzpTaGjE7-56" vertex="1">
          <mxGeometry y="26" width="190" height="8" as="geometry" />
        </mxCell>
        <mxCell id="pMVwF3DRIxQIzpTaGjE7-59" value="+ playGame(): void&lt;br&gt;- initializeGame(int): void&lt;br&gt;+ endGame(): void" style="text;strokeColor=none;fillColor=none;align=left;verticalAlign=top;spacingLeft=4;spacingRight=4;overflow=hidden;rotatable=0;points=[[0,0.5],[1,0.5]];portConstraint=eastwest;whiteSpace=wrap;html=1;" parent="pMVwF3DRIxQIzpTaGjE7-56" vertex="1">
          <mxGeometry y="34" width="190" height="62" as="geometry" />
        </mxCell>
        <mxCell id="pMVwF3DRIxQIzpTaGjE7-60" value="RacingPhase" style="swimlane;fontStyle=1;align=center;verticalAlign=top;childLayout=stackLayout;horizontal=1;startSize=26;horizontalStack=0;resizeParent=1;resizeParentMax=0;resizeLast=0;collapsible=1;marginBottom=0;whiteSpace=wrap;html=1;" parent="WIyWlLk6GJQsqaUBKTNV-1" vertex="1">
          <mxGeometry x="90" y="457" width="188" height="128" as="geometry" />
        </mxCell>
        <mxCell id="pMVwF3DRIxQIzpTaGjE7-61" value="- deck: Deck&lt;br&gt;- table: Table" style="text;strokeColor=none;fillColor=none;align=left;verticalAlign=top;spacingLeft=4;spacingRight=4;overflow=hidden;rotatable=0;points=[[0,0.5],[1,0.5]];portConstraint=eastwest;whiteSpace=wrap;html=1;" parent="pMVwF3DRIxQIzpTaGjE7-60" vertex="1">
          <mxGeometry y="26" width="188" height="44" as="geometry" />
        </mxCell>
        <mxCell id="pMVwF3DRIxQIzpTaGjE7-62" value="" style="line;strokeWidth=1;fillColor=none;align=left;verticalAlign=middle;spacingTop=-1;spacingLeft=3;spacingRight=3;rotatable=0;labelPosition=right;points=[];portConstraint=eastwest;strokeColor=inherit;" parent="pMVwF3DRIxQIzpTaGjE7-60" vertex="1">
          <mxGeometry y="70" width="188" height="8" as="geometry" />
        </mxCell>
        <mxCell id="pMVwF3DRIxQIzpTaGjE7-63" value="+ startPhase(): void&lt;br&gt;- resolveFence(Player): void" style="text;strokeColor=none;fillColor=none;align=left;verticalAlign=top;spacingLeft=4;spacingRight=4;overflow=hidden;rotatable=0;points=[[0,0.5],[1,0.5]];portConstraint=eastwest;whiteSpace=wrap;html=1;" parent="pMVwF3DRIxQIzpTaGjE7-60" vertex="1">
          <mxGeometry y="78" width="188" height="50" as="geometry" />
        </mxCell>
        <mxCell id="pMVwF3DRIxQIzpTaGjE7-64" value="RestingPhase" style="swimlane;fontStyle=1;align=center;verticalAlign=top;childLayout=stackLayout;horizontal=1;startSize=26;horizontalStack=0;resizeParent=1;resizeParentMax=0;resizeLast=0;collapsible=1;marginBottom=0;whiteSpace=wrap;html=1;" parent="WIyWlLk6GJQsqaUBKTNV-1" vertex="1">
          <mxGeometry x="-100" y="457" width="160" height="128" as="geometry" />
        </mxCell>
        <mxCell id="pMVwF3DRIxQIzpTaGjE7-65" value="- tilePile: TilePile&lt;br&gt;- table: Table" style="text;strokeColor=none;fillColor=none;align=left;verticalAlign=top;spacingLeft=4;spacingRight=4;overflow=hidden;rotatable=0;points=[[0,0.5],[1,0.5]];portConstraint=eastwest;whiteSpace=wrap;html=1;" parent="pMVwF3DRIxQIzpTaGjE7-64" vertex="1">
          <mxGeometry y="26" width="160" height="44" as="geometry" />
        </mxCell>
        <mxCell id="pMVwF3DRIxQIzpTaGjE7-66" value="" style="line;strokeWidth=1;fillColor=none;align=left;verticalAlign=middle;spacingTop=-1;spacingLeft=3;spacingRight=3;rotatable=0;labelPosition=right;points=[];portConstraint=eastwest;strokeColor=inherit;" parent="pMVwF3DRIxQIzpTaGjE7-64" vertex="1">
          <mxGeometry y="70" width="160" height="8" as="geometry" />
        </mxCell>
        <mxCell id="pMVwF3DRIxQIzpTaGjE7-67" value="+ startPhase(): void&lt;br&gt;- placeTile(Board, int): void" style="text;strokeColor=none;fillColor=none;align=left;verticalAlign=top;spacingLeft=4;spacingRight=4;overflow=hidden;rotatable=0;points=[[0,0.5],[1,0.5]];portConstraint=eastwest;whiteSpace=wrap;html=1;" parent="pMVwF3DRIxQIzpTaGjE7-64" vertex="1">
          <mxGeometry y="78" width="160" height="50" as="geometry" />
        </mxCell>
        <mxCell id="pMVwF3DRIxQIzpTaGjE7-68" value="DreamTileCollection" style="swimlane;fontStyle=1;align=center;verticalAlign=top;childLayout=stackLayout;horizontal=1;startSize=26;horizontalStack=0;resizeParent=1;resizeParentMax=0;resizeLast=0;collapsible=1;marginBottom=0;whiteSpace=wrap;html=1;fillColor=#dae8fc;strokeColor=#6c8ebf;" parent="WIyWlLk6GJQsqaUBKTNV-1" vertex="1">
          <mxGeometry x="-225.5" y="638" width="180" height="118" as="geometry" />
        </mxCell>
        <mxCell id="pMVwF3DRIxQIzpTaGjE7-69" value="- tiles: ArrayList&amp;lt;DreamTile&amp;gt;" style="text;strokeColor=none;fillColor=none;align=left;verticalAlign=top;spacingLeft=4;spacingRight=4;overflow=hidden;rotatable=0;points=[[0,0.5],[1,0.5]];portConstraint=eastwest;whiteSpace=wrap;html=1;" parent="pMVwF3DRIxQIzpTaGjE7-68" vertex="1">
          <mxGeometry y="26" width="180" height="34" as="geometry" />
        </mxCell>
        <mxCell id="pMVwF3DRIxQIzpTaGjE7-70" value="" style="line;strokeWidth=1;fillColor=none;align=left;verticalAlign=middle;spacingTop=-1;spacingLeft=3;spacingRight=3;rotatable=0;labelPosition=right;points=[];portConstraint=eastwest;strokeColor=inherit;" parent="pMVwF3DRIxQIzpTaGjE7-68" vertex="1">
          <mxGeometry y="60" width="180" height="8" as="geometry" />
        </mxCell>
        <mxCell id="pMVwF3DRIxQIzpTaGjE7-71" value="+ takeTile(): DreamTile&lt;br&gt;+ shuffle(): void" style="text;strokeColor=none;fillColor=none;align=left;verticalAlign=top;spacingLeft=4;spacingRight=4;overflow=hidden;rotatable=0;points=[[0,0.5],[1,0.5]];portConstraint=eastwest;whiteSpace=wrap;html=1;" parent="pMVwF3DRIxQIzpTaGjE7-68" vertex="1">
          <mxGeometry y="68" width="180" height="50" as="geometry" />
        </mxCell>
        <mxCell id="pMVwF3DRIxQIzpTaGjE7-72" value="Deck" style="swimlane;fontStyle=1;align=center;verticalAlign=top;childLayout=stackLayout;horizontal=1;startSize=26;horizontalStack=0;resizeParent=1;resizeParentMax=0;resizeLast=0;collapsible=1;marginBottom=0;whiteSpace=wrap;html=1;fillColor=#dae8fc;strokeColor=#6c8ebf;" parent="WIyWlLk6GJQsqaUBKTNV-1" vertex="1">
          <mxGeometry x="400" y="378" width="160" height="110" as="geometry" />
        </mxCell>
        <mxCell id="pMVwF3DRIxQIzpTaGjE7-73" value="- cards: ArrayList&amp;lt;Card&amp;gt;" style="text;strokeColor=none;fillColor=none;align=left;verticalAlign=top;spacingLeft=4;spacingRight=4;overflow=hidden;rotatable=0;points=[[0,0.5],[1,0.5]];portConstraint=eastwest;whiteSpace=wrap;html=1;" parent="pMVwF3DRIxQIzpTaGjE7-72" vertex="1">
          <mxGeometry y="26" width="160" height="26" as="geometry" />
        </mxCell>
        <mxCell id="pMVwF3DRIxQIzpTaGjE7-74" value="" style="line;strokeWidth=1;fillColor=none;align=left;verticalAlign=middle;spacingTop=-1;spacingLeft=3;spacingRight=3;rotatable=0;labelPosition=right;points=[];portConstraint=eastwest;strokeColor=inherit;" parent="pMVwF3DRIxQIzpTaGjE7-72" vertex="1">
          <mxGeometry y="52" width="160" height="8" as="geometry" />
        </mxCell>
        <mxCell id="pMVwF3DRIxQIzpTaGjE7-75" value="+ takeCard(): Card&lt;br&gt;+ shuffle(): void" style="text;strokeColor=none;fillColor=none;align=left;verticalAlign=top;spacingLeft=4;spacingRight=4;overflow=hidden;rotatable=0;points=[[0,0.5],[1,0.5]];portConstraint=eastwest;whiteSpace=wrap;html=1;" parent="pMVwF3DRIxQIzpTaGjE7-72" vertex="1">
          <mxGeometry y="60" width="160" height="50" as="geometry" />
        </mxCell>
        <mxCell id="pMVwF3DRIxQIzpTaGjE7-76" value="Card" style="swimlane;fontStyle=1;align=center;verticalAlign=top;childLayout=stackLayout;horizontal=1;startSize=40;horizontalStack=0;resizeParent=1;resizeParentMax=0;resizeLast=0;collapsible=1;marginBottom=0;whiteSpace=wrap;html=1;fillColor=#dae8fc;strokeColor=#6c8ebf;" parent="WIyWlLk6GJQsqaUBKTNV-1" vertex="1">
          <mxGeometry x="660" y="378" width="160" height="130" as="geometry" />
        </mxCell>
        <mxCell id="pMVwF3DRIxQIzpTaGjE7-77" value="- name: String&lt;br&gt;- isNightmare: boolean" style="text;strokeColor=none;fillColor=none;align=left;verticalAlign=top;spacingLeft=4;spacingRight=4;overflow=hidden;rotatable=0;points=[[0,0.5],[1,0.5]];portConstraint=eastwest;whiteSpace=wrap;html=1;" parent="pMVwF3DRIxQIzpTaGjE7-76" vertex="1">
          <mxGeometry y="40" width="160" height="40" as="geometry" />
        </mxCell>
        <mxCell id="pMVwF3DRIxQIzpTaGjE7-78" value="" style="line;strokeWidth=1;fillColor=none;align=left;verticalAlign=middle;spacingTop=-1;spacingLeft=3;spacingRight=3;rotatable=0;labelPosition=right;points=[];portConstraint=eastwest;strokeColor=inherit;" parent="pMVwF3DRIxQIzpTaGjE7-76" vertex="1">
          <mxGeometry y="80" width="160" height="8" as="geometry" />
        </mxCell>
        <mxCell id="pMVwF3DRIxQIzpTaGjE7-79" value="+ isNightmare(): boolean&lt;br&gt;+ playCard(): void" style="text;strokeColor=none;fillColor=none;align=left;verticalAlign=top;spacingLeft=4;spacingRight=4;overflow=hidden;rotatable=0;points=[[0,0.5],[1,0.5]];portConstraint=eastwest;whiteSpace=wrap;html=1;" parent="pMVwF3DRIxQIzpTaGjE7-76" vertex="1">
          <mxGeometry y="88" width="160" height="42" as="geometry" />
        </mxCell>
        <mxCell id="pMVwF3DRIxQIzpTaGjE7-93" value="&lt;div style=&quot;&quot;&gt;&lt;span style=&quot;background-color: initial;&quot;&gt;Depending on how many players we want to have in our game, we initialize scores with different modifier values, and for n players, store n amount of Score(s) in a list.&lt;/span&gt;&lt;/div&gt;" style="shape=note;size=20;whiteSpace=wrap;html=1;align=center;" parent="WIyWlLk6GJQsqaUBKTNV-1" vertex="1">
          <mxGeometry x="920" y="600" width="250" height="110" as="geometry" />
        </mxCell>
        <mxCell id="_sMsVmKfLl6NCSwY4iJB-10" value="zToken" style="swimlane;fontStyle=1;align=center;verticalAlign=top;childLayout=stackLayout;horizontal=1;startSize=26;horizontalStack=0;resizeParent=1;resizeParentMax=0;resizeLast=0;collapsible=1;marginBottom=0;whiteSpace=wrap;html=1;fillColor=#dae8fc;strokeColor=#6c8ebf;" parent="WIyWlLk6GJQsqaUBKTNV-1" vertex="1">
          <mxGeometry x="-80" y="1340" width="160" height="110" as="geometry" />
        </mxCell>
        <mxCell id="_sMsVmKfLl6NCSwY4iJB-11" value="&lt;div&gt;- player: Player&lt;/div&gt;- isInfinite: boolean" style="text;strokeColor=none;fillColor=none;align=left;verticalAlign=top;spacingLeft=4;spacingRight=4;overflow=hidden;rotatable=0;points=[[0,0.5],[1,0.5]];portConstraint=eastwest;whiteSpace=wrap;html=1;" parent="_sMsVmKfLl6NCSwY4iJB-10" vertex="1">
          <mxGeometry y="26" width="160" height="34" as="geometry" />
        </mxCell>
        <mxCell id="_sMsVmKfLl6NCSwY4iJB-12" value="" style="line;strokeWidth=1;fillColor=none;align=left;verticalAlign=middle;spacingTop=-1;spacingLeft=3;spacingRight=3;rotatable=0;labelPosition=right;points=[];portConstraint=eastwest;strokeColor=inherit;" parent="_sMsVmKfLl6NCSwY4iJB-10" vertex="1">
          <mxGeometry y="60" width="160" height="8" as="geometry" />
        </mxCell>
        <mxCell id="_sMsVmKfLl6NCSwY4iJB-13" value="+ isInfinite(): boolean&lt;div&gt;+ getPlayer(): Player&lt;/div&gt;" style="text;strokeColor=none;fillColor=none;align=left;verticalAlign=top;spacingLeft=4;spacingRight=4;overflow=hidden;rotatable=0;points=[[0,0.5],[1,0.5]];portConstraint=eastwest;whiteSpace=wrap;html=1;" parent="_sMsVmKfLl6NCSwY4iJB-10" vertex="1">
          <mxGeometry y="68" width="160" height="42" as="geometry" />
        </mxCell>
        <mxCell id="MSoJ3sRlNnhce-xAfysp-1" value="Wolf" style="html=1;whiteSpace=wrap;fontStyle=1" parent="WIyWlLk6GJQsqaUBKTNV-1" vertex="1">
          <mxGeometry x="488.25" y="1202" width="110" height="50" as="geometry" />
        </mxCell>
        <mxCell id="MSoJ3sRlNnhce-xAfysp-2" value="Spider" style="html=1;whiteSpace=wrap;fontStyle=1" parent="WIyWlLk6GJQsqaUBKTNV-1" vertex="1">
          <mxGeometry x="357.25" y="1202" width="110" height="50" as="geometry" />
        </mxCell>
        <mxCell id="MSoJ3sRlNnhce-xAfysp-3" value="Other Nightmares" style="html=1;whiteSpace=wrap;fontStyle=1" parent="WIyWlLk6GJQsqaUBKTNV-1" vertex="1">
          <mxGeometry x="622.75" y="1202" width="110" height="50" as="geometry" />
        </mxCell>
        <mxCell id="MSoJ3sRlNnhce-xAfysp-4" value="TileOne" style="html=1;whiteSpace=wrap;fontStyle=1" parent="WIyWlLk6GJQsqaUBKTNV-1" vertex="1">
          <mxGeometry x="-460" y="950" width="110" height="50" as="geometry" />
        </mxCell>
        <mxCell id="MSoJ3sRlNnhce-xAfysp-5" value="TileTwo" style="html=1;whiteSpace=wrap;fontStyle=1" parent="WIyWlLk6GJQsqaUBKTNV-1" vertex="1">
          <mxGeometry x="-344" y="950" width="110" height="50" as="geometry" />
        </mxCell>
        <mxCell id="MSoJ3sRlNnhce-xAfysp-12" style="edgeStyle=orthogonalEdgeStyle;rounded=0;orthogonalLoop=1;jettySize=auto;html=1;exitX=0.5;exitY=1;exitDx=0;exitDy=0;entryX=0.5;entryY=0;entryDx=0;entryDy=0;" parent="WIyWlLk6GJQsqaUBKTNV-1" source="MSoJ3sRlNnhce-xAfysp-11" target="pMVwF3DRIxQIzpTaGjE7-56" edge="1">
          <mxGeometry relative="1" as="geometry" />
        </mxCell>
        <mxCell id="MSoJ3sRlNnhce-xAfysp-11" value="&lt;b&gt;Console&lt;/b&gt;" style="html=1;whiteSpace=wrap;" parent="WIyWlLk6GJQsqaUBKTNV-1" vertex="1">
          <mxGeometry x="-82" y="70" width="110" height="50" as="geometry" />
        </mxCell>
        <mxCell id="EXE3v53B0u-t4HewnoNx-7" style="edgeStyle=orthogonalEdgeStyle;rounded=0;orthogonalLoop=1;jettySize=auto;html=1;exitX=1;exitY=0.5;exitDx=0;exitDy=0;entryX=0.75;entryY=0;entryDx=0;entryDy=0;" parent="WIyWlLk6GJQsqaUBKTNV-1" source="pMVwF3DRIxQIzpTaGjE7-59" target="pMVwF3DRIxQIzpTaGjE7-60" edge="1">
          <mxGeometry relative="1" as="geometry" />
        </mxCell>
        <mxCell id="EXE3v53B0u-t4HewnoNx-8" style="edgeStyle=orthogonalEdgeStyle;rounded=0;orthogonalLoop=1;jettySize=auto;html=1;exitX=0.45;exitY=1.009;exitDx=0;exitDy=0;entryX=0.396;entryY=-0.008;entryDx=0;entryDy=0;entryPerimeter=0;exitPerimeter=0;" parent="WIyWlLk6GJQsqaUBKTNV-1" source="pMVwF3DRIxQIzpTaGjE7-59" target="pMVwF3DRIxQIzpTaGjE7-64" edge="1">
          <mxGeometry relative="1" as="geometry" />
        </mxCell>
        <mxCell id="EXE3v53B0u-t4HewnoNx-9" style="edgeStyle=orthogonalEdgeStyle;rounded=0;orthogonalLoop=1;jettySize=auto;html=1;exitX=0;exitY=0.5;exitDx=0;exitDy=0;entryX=0.525;entryY=0.004;entryDx=0;entryDy=0;entryPerimeter=0;" parent="WIyWlLk6GJQsqaUBKTNV-1" source="pMVwF3DRIxQIzpTaGjE7-67" target="pMVwF3DRIxQIzpTaGjE7-68" edge="1">
          <mxGeometry relative="1" as="geometry" />
        </mxCell>
        <mxCell id="EXE3v53B0u-t4HewnoNx-14" value="" style="endArrow=block;dashed=1;endFill=0;endSize=12;html=1;rounded=0;exitX=0.5;exitY=0;exitDx=0;exitDy=0;entryX=0.09;entryY=1.104;entryDx=0;entryDy=0;entryPerimeter=0;" parent="WIyWlLk6GJQsqaUBKTNV-1" source="MSoJ3sRlNnhce-xAfysp-4" target="pMVwF3DRIxQIzpTaGjE7-47" edge="1">
          <mxGeometry width="160" relative="1" as="geometry">
            <mxPoint x="-180" y="960" as="sourcePoint" />
            <mxPoint x="-20" y="960" as="targetPoint" />
          </mxGeometry>
        </mxCell>
        <mxCell id="EXE3v53B0u-t4HewnoNx-15" value="" style="endArrow=block;dashed=1;endFill=0;endSize=12;html=1;rounded=0;exitX=0.5;exitY=0;exitDx=0;exitDy=0;entryX=0.529;entryY=1.016;entryDx=0;entryDy=0;entryPerimeter=0;" parent="WIyWlLk6GJQsqaUBKTNV-1" source="MSoJ3sRlNnhce-xAfysp-5" target="pMVwF3DRIxQIzpTaGjE7-47" edge="1">
          <mxGeometry width="160" relative="1" as="geometry">
            <mxPoint x="-100" y="950" as="sourcePoint" />
            <mxPoint x="-140" y="950" as="targetPoint" />
          </mxGeometry>
        </mxCell>
        <mxCell id="EXE3v53B0u-t4HewnoNx-16" value="" style="endArrow=block;dashed=1;endFill=0;endSize=12;html=1;rounded=0;exitX=0.5;exitY=0;exitDx=0;exitDy=0;entryX=0.943;entryY=1.016;entryDx=0;entryDy=0;entryPerimeter=0;" parent="WIyWlLk6GJQsqaUBKTNV-1" source="MSoJ3sRlNnhce-xAfysp-6" target="pMVwF3DRIxQIzpTaGjE7-47" edge="1">
          <mxGeometry width="160" relative="1" as="geometry">
            <mxPoint y="950" as="sourcePoint" />
            <mxPoint x="160" y="950" as="targetPoint" />
          </mxGeometry>
        </mxCell>
        <mxCell id="EXE3v53B0u-t4HewnoNx-17" value="" style="endArrow=block;dashed=1;endFill=0;endSize=12;html=1;rounded=0;exitX=0.557;exitY=-0.071;exitDx=0;exitDy=0;exitPerimeter=0;entryX=0.108;entryY=0.979;entryDx=0;entryDy=0;entryPerimeter=0;" parent="WIyWlLk6GJQsqaUBKTNV-1" source="MSoJ3sRlNnhce-xAfysp-2" target="pMVwF3DRIxQIzpTaGjE7-31" edge="1">
          <mxGeometry width="160" relative="1" as="geometry">
            <mxPoint x="500" y="1270" as="sourcePoint" />
            <mxPoint x="660" y="1270" as="targetPoint" />
          </mxGeometry>
        </mxCell>
        <mxCell id="EXE3v53B0u-t4HewnoNx-18" value="" style="endArrow=block;dashed=1;endFill=0;endSize=12;html=1;rounded=0;exitX=0.5;exitY=0;exitDx=0;exitDy=0;entryX=0.497;entryY=1.007;entryDx=0;entryDy=0;entryPerimeter=0;" parent="WIyWlLk6GJQsqaUBKTNV-1" source="MSoJ3sRlNnhce-xAfysp-1" target="pMVwF3DRIxQIzpTaGjE7-31" edge="1">
          <mxGeometry width="160" relative="1" as="geometry">
            <mxPoint x="510" y="1280" as="sourcePoint" />
            <mxPoint x="670" y="1280" as="targetPoint" />
          </mxGeometry>
        </mxCell>
        <mxCell id="EXE3v53B0u-t4HewnoNx-19" value="" style="endArrow=block;dashed=1;endFill=0;endSize=12;html=1;rounded=0;exitX=0.393;exitY=0.009;exitDx=0;exitDy=0;exitPerimeter=0;entryX=0.825;entryY=1.05;entryDx=0;entryDy=0;entryPerimeter=0;" parent="WIyWlLk6GJQsqaUBKTNV-1" source="MSoJ3sRlNnhce-xAfysp-3" target="pMVwF3DRIxQIzpTaGjE7-31" edge="1">
          <mxGeometry width="160" relative="1" as="geometry">
            <mxPoint x="520" y="1290" as="sourcePoint" />
            <mxPoint x="680" y="1290" as="targetPoint" />
          </mxGeometry>
        </mxCell>
        <mxCell id="EXE3v53B0u-t4HewnoNx-23" style="edgeStyle=orthogonalEdgeStyle;rounded=0;orthogonalLoop=1;jettySize=auto;html=1;exitX=0;exitY=0.5;exitDx=0;exitDy=0;entryX=0.5;entryY=0;entryDx=0;entryDy=0;" parent="WIyWlLk6GJQsqaUBKTNV-1" source="pMVwF3DRIxQIzpTaGjE7-3" target="_sMsVmKfLl6NCSwY4iJB-10" edge="1">
          <mxGeometry relative="1" as="geometry" />
        </mxCell>
        <mxCell id="pMVwF3DRIxQIzpTaGjE7-94" value="These are placeholder names, but basically every &quot;type&quot; of tile depending on it&#39;s style of ability will get it&#39;s own class implementing DreamTile (in theory)." style="shape=note;size=20;whiteSpace=wrap;html=1;" parent="WIyWlLk6GJQsqaUBKTNV-1" vertex="1">
          <mxGeometry x="-390" y="1010" width="200" height="117" as="geometry" />
        </mxCell>
        <mxCell id="EXE3v53B0u-t4HewnoNx-44" value="1" style="text;html=1;align=center;verticalAlign=middle;resizable=0;points=[];autosize=1;strokeColor=none;fillColor=none;" parent="WIyWlLk6GJQsqaUBKTNV-1" vertex="1">
          <mxGeometry x="-40" y="408" width="30" height="30" as="geometry" />
        </mxCell>
        <mxCell id="MSoJ3sRlNnhce-xAfysp-6" value="&lt;b&gt;TileN&lt;/b&gt;" style="html=1;whiteSpace=wrap;" parent="WIyWlLk6GJQsqaUBKTNV-1" vertex="1">
          <mxGeometry x="-227" y="950" width="110" height="50" as="geometry" />
        </mxCell>
        <mxCell id="EXE3v53B0u-t4HewnoNx-50" style="edgeStyle=orthogonalEdgeStyle;rounded=0;orthogonalLoop=1;jettySize=auto;html=1;exitX=0;exitY=0.5;exitDx=0;exitDy=0;entryX=0.5;entryY=0;entryDx=0;entryDy=0;" parent="WIyWlLk6GJQsqaUBKTNV-1" source="pMVwF3DRIxQIzpTaGjE7-71" target="pMVwF3DRIxQIzpTaGjE7-44" edge="1">
          <mxGeometry relative="1" as="geometry" />
        </mxCell>
        <mxCell id="EXE3v53B0u-t4HewnoNx-57" value="1" style="text;html=1;align=center;verticalAlign=middle;resizable=0;points=[];autosize=1;strokeColor=none;fillColor=none;" parent="WIyWlLk6GJQsqaUBKTNV-1" vertex="1">
          <mxGeometry x="335" y="1038" width="30" height="30" as="geometry" />
        </mxCell>
        <mxCell id="EXE3v53B0u-t4HewnoNx-63" style="edgeStyle=orthogonalEdgeStyle;rounded=0;orthogonalLoop=1;jettySize=auto;html=1;exitX=1;exitY=0.5;exitDx=0;exitDy=0;entryX=-0.001;entryY=0.557;entryDx=0;entryDy=0;entryPerimeter=0;" parent="WIyWlLk6GJQsqaUBKTNV-1" source="pMVwF3DRIxQIzpTaGjE7-61" target="pMVwF3DRIxQIzpTaGjE7-73" edge="1">
          <mxGeometry relative="1" as="geometry">
            <Array as="points">
              <mxPoint x="330" y="418" />
            </Array>
          </mxGeometry>
        </mxCell>
        <mxCell id="_sMsVmKfLl6NCSwY4iJB-9" value="(Semi) Placeholder Nightmare names, there&#39;s a class for each type (I&#39;ve forgotten all their names)." style="shape=note;size=20;whiteSpace=wrap;html=1;" parent="WIyWlLk6GJQsqaUBKTNV-1" vertex="1">
          <mxGeometry x="467.25" y="1290" width="160" height="100" as="geometry" />
        </mxCell>
        <mxCell id="EXE3v53B0u-t4HewnoNx-68" value="3..4" style="text;html=1;align=center;verticalAlign=middle;resizable=0;points=[];autosize=1;strokeColor=none;fillColor=none;" parent="WIyWlLk6GJQsqaUBKTNV-1" vertex="1">
          <mxGeometry x="-300" y="760" width="40" height="30" as="geometry" />
        </mxCell>
        <mxCell id="EXE3v53B0u-t4HewnoNx-69" value="1" style="text;html=1;align=center;verticalAlign=middle;resizable=0;points=[];autosize=1;strokeColor=none;fillColor=none;" parent="WIyWlLk6GJQsqaUBKTNV-1" vertex="1">
          <mxGeometry x="-135" y="608" width="30" height="30" as="geometry" />
        </mxCell>
        <mxCell id="EXE3v53B0u-t4HewnoNx-70" value="1" style="text;html=1;align=center;verticalAlign=middle;resizable=0;points=[];autosize=1;strokeColor=none;fillColor=none;" parent="WIyWlLk6GJQsqaUBKTNV-1" vertex="1">
          <mxGeometry x="-42" y="330" width="30" height="30" as="geometry" />
        </mxCell>
        <mxCell id="EXE3v53B0u-t4HewnoNx-71" value="1" style="text;html=1;align=center;verticalAlign=middle;resizable=0;points=[];autosize=1;strokeColor=none;fillColor=none;" parent="WIyWlLk6GJQsqaUBKTNV-1" vertex="1">
          <mxGeometry x="187.25" y="330" width="30" height="30" as="geometry" />
        </mxCell>
        <mxCell id="EXE3v53B0u-t4HewnoNx-75" value="In the end, we may end up making NightmareCard and RegularCard interfaces to better allow for more complex Card behaviour" style="shape=note;size=20;whiteSpace=wrap;html=1;" parent="WIyWlLk6GJQsqaUBKTNV-1" vertex="1">
          <mxGeometry x="900" y="1040.5" width="248" height="89" as="geometry" />
        </mxCell>
        <mxCell id="EXE3v53B0u-t4HewnoNx-76" value="In reality, there should be (way) more private methods here doing a bunch of different stuff, but I haven&#39;t got the time to think of all of them at this point. Just imagine it works!" style="shape=note;size=20;whiteSpace=wrap;html=1;" parent="WIyWlLk6GJQsqaUBKTNV-1" vertex="1">
          <mxGeometry x="187.25" y="80" width="260" height="100" as="geometry" />
        </mxCell>
        <mxCell id="6Y5s2NgotVWqwfQAXP0R-7" value="PlayerBoard" style="swimlane;fontStyle=1;align=center;verticalAlign=top;childLayout=stackLayout;horizontal=1;startSize=26;horizontalStack=0;resizeParent=1;resizeParentMax=0;resizeLast=0;collapsible=1;marginBottom=0;whiteSpace=wrap;html=1;fillColor=#dae8fc;strokeColor=#6c8ebf;" vertex="1" parent="WIyWlLk6GJQsqaUBKTNV-1">
          <mxGeometry x="135" y="812" width="160" height="86" as="geometry" />
        </mxCell>
        <mxCell id="6Y5s2NgotVWqwfQAXP0R-8" value="+ field: type" style="text;strokeColor=none;fillColor=none;align=left;verticalAlign=top;spacingLeft=4;spacingRight=4;overflow=hidden;rotatable=0;points=[[0,0.5],[1,0.5]];portConstraint=eastwest;whiteSpace=wrap;html=1;" vertex="1" parent="6Y5s2NgotVWqwfQAXP0R-7">
          <mxGeometry y="26" width="160" height="26" as="geometry" />
        </mxCell>
        <mxCell id="6Y5s2NgotVWqwfQAXP0R-9" value="" style="line;strokeWidth=1;fillColor=none;align=left;verticalAlign=middle;spacingTop=-1;spacingLeft=3;spacingRight=3;rotatable=0;labelPosition=right;points=[];portConstraint=eastwest;strokeColor=inherit;" vertex="1" parent="6Y5s2NgotVWqwfQAXP0R-7">
          <mxGeometry y="52" width="160" height="8" as="geometry" />
        </mxCell>
        <mxCell id="6Y5s2NgotVWqwfQAXP0R-10" value="+ method(type): type" style="text;strokeColor=none;fillColor=none;align=left;verticalAlign=top;spacingLeft=4;spacingRight=4;overflow=hidden;rotatable=0;points=[[0,0.5],[1,0.5]];portConstraint=eastwest;whiteSpace=wrap;html=1;" vertex="1" parent="6Y5s2NgotVWqwfQAXP0R-7">
          <mxGeometry y="60" width="160" height="26" as="geometry" />
        </mxCell>
        <mxCell id="6Y5s2NgotVWqwfQAXP0R-11" value="NightmareBoard" style="swimlane;fontStyle=1;align=center;verticalAlign=top;childLayout=stackLayout;horizontal=1;startSize=26;horizontalStack=0;resizeParent=1;resizeParentMax=0;resizeLast=0;collapsible=1;marginBottom=0;whiteSpace=wrap;html=1;fillColor=#dae8fc;strokeColor=#6c8ebf;" vertex="1" parent="WIyWlLk6GJQsqaUBKTNV-1">
          <mxGeometry x="340" y="812" width="160" height="86" as="geometry" />
        </mxCell>
        <mxCell id="6Y5s2NgotVWqwfQAXP0R-12" value="+ field: type" style="text;strokeColor=none;fillColor=none;align=left;verticalAlign=top;spacingLeft=4;spacingRight=4;overflow=hidden;rotatable=0;points=[[0,0.5],[1,0.5]];portConstraint=eastwest;whiteSpace=wrap;html=1;" vertex="1" parent="6Y5s2NgotVWqwfQAXP0R-11">
          <mxGeometry y="26" width="160" height="26" as="geometry" />
        </mxCell>
        <mxCell id="6Y5s2NgotVWqwfQAXP0R-13" value="" style="line;strokeWidth=1;fillColor=none;align=left;verticalAlign=middle;spacingTop=-1;spacingLeft=3;spacingRight=3;rotatable=0;labelPosition=right;points=[];portConstraint=eastwest;strokeColor=inherit;" vertex="1" parent="6Y5s2NgotVWqwfQAXP0R-11">
          <mxGeometry y="52" width="160" height="8" as="geometry" />
        </mxCell>
        <mxCell id="6Y5s2NgotVWqwfQAXP0R-14" value="+ method(type): type" style="text;strokeColor=none;fillColor=none;align=left;verticalAlign=top;spacingLeft=4;spacingRight=4;overflow=hidden;rotatable=0;points=[[0,0.5],[1,0.5]];portConstraint=eastwest;whiteSpace=wrap;html=1;" vertex="1" parent="6Y5s2NgotVWqwfQAXP0R-11">
          <mxGeometry y="60" width="160" height="26" as="geometry" />
        </mxCell>
        <mxCell id="6Y5s2NgotVWqwfQAXP0R-15" value="DreamTileBoard" style="swimlane;fontStyle=1;align=center;verticalAlign=top;childLayout=stackLayout;horizontal=1;startSize=26;horizontalStack=0;resizeParent=1;resizeParentMax=0;resizeLast=0;collapsible=1;marginBottom=0;whiteSpace=wrap;html=1;fillColor=#dae8fc;strokeColor=#6c8ebf;" vertex="1" parent="WIyWlLk6GJQsqaUBKTNV-1">
          <mxGeometry x="-200" y="790" width="160" height="86" as="geometry" />
        </mxCell>
        <mxCell id="6Y5s2NgotVWqwfQAXP0R-16" value="+ field: type" style="text;strokeColor=none;fillColor=none;align=left;verticalAlign=top;spacingLeft=4;spacingRight=4;overflow=hidden;rotatable=0;points=[[0,0.5],[1,0.5]];portConstraint=eastwest;whiteSpace=wrap;html=1;" vertex="1" parent="6Y5s2NgotVWqwfQAXP0R-15">
          <mxGeometry y="26" width="160" height="26" as="geometry" />
        </mxCell>
        <mxCell id="6Y5s2NgotVWqwfQAXP0R-17" value="" style="line;strokeWidth=1;fillColor=none;align=left;verticalAlign=middle;spacingTop=-1;spacingLeft=3;spacingRight=3;rotatable=0;labelPosition=right;points=[];portConstraint=eastwest;strokeColor=inherit;" vertex="1" parent="6Y5s2NgotVWqwfQAXP0R-15">
          <mxGeometry y="52" width="160" height="8" as="geometry" />
        </mxCell>
        <mxCell id="6Y5s2NgotVWqwfQAXP0R-18" value="+ method(type): type" style="text;strokeColor=none;fillColor=none;align=left;verticalAlign=top;spacingLeft=4;spacingRight=4;overflow=hidden;rotatable=0;points=[[0,0.5],[1,0.5]];portConstraint=eastwest;whiteSpace=wrap;html=1;" vertex="1" parent="6Y5s2NgotVWqwfQAXP0R-15">
          <mxGeometry y="60" width="160" height="26" as="geometry" />
        </mxCell>
        <mxCell id="6Y5s2NgotVWqwfQAXP0R-19" style="edgeStyle=orthogonalEdgeStyle;rounded=0;orthogonalLoop=1;jettySize=auto;html=1;exitX=1;exitY=0.5;exitDx=0;exitDy=0;entryX=0;entryY=0.675;entryDx=0;entryDy=0;entryPerimeter=0;" edge="1" parent="WIyWlLk6GJQsqaUBKTNV-1" source="pMVwF3DRIxQIzpTaGjE7-73" target="pMVwF3DRIxQIzpTaGjE7-77">
          <mxGeometry relative="1" as="geometry" />
        </mxCell>
        <mxCell id="6Y5s2NgotVWqwfQAXP0R-20" value="&lt;div&gt;MVC!&lt;/div&gt;Blue: Model&lt;div&gt;Red: Controller&lt;/div&gt;&lt;div&gt;Yellow: Viewer&lt;/div&gt;" style="rounded=0;whiteSpace=wrap;html=1;" vertex="1" parent="WIyWlLk6GJQsqaUBKTNV-1">
          <mxGeometry x="-320" y="147" width="120" height="73" as="geometry" />
        </mxCell>
        <mxCell id="6Y5s2NgotVWqwfQAXP0R-21" value="CardViewer" style="swimlane;fontStyle=1;align=center;verticalAlign=top;childLayout=stackLayout;horizontal=1;startSize=26;horizontalStack=0;resizeParent=1;resizeParentMax=0;resizeLast=0;collapsible=1;marginBottom=0;whiteSpace=wrap;html=1;fillColor=#fff2cc;strokeColor=#d6b656;" vertex="1" parent="WIyWlLk6GJQsqaUBKTNV-1">
          <mxGeometry x="890" y="380" width="160" height="86" as="geometry" />
        </mxCell>
        <mxCell id="6Y5s2NgotVWqwfQAXP0R-22" value="+ field: type" style="text;strokeColor=none;fillColor=none;align=left;verticalAlign=top;spacingLeft=4;spacingRight=4;overflow=hidden;rotatable=0;points=[[0,0.5],[1,0.5]];portConstraint=eastwest;whiteSpace=wrap;html=1;" vertex="1" parent="6Y5s2NgotVWqwfQAXP0R-21">
          <mxGeometry y="26" width="160" height="26" as="geometry" />
        </mxCell>
        <mxCell id="6Y5s2NgotVWqwfQAXP0R-23" value="" style="line;strokeWidth=1;fillColor=none;align=left;verticalAlign=middle;spacingTop=-1;spacingLeft=3;spacingRight=3;rotatable=0;labelPosition=right;points=[];portConstraint=eastwest;strokeColor=inherit;" vertex="1" parent="6Y5s2NgotVWqwfQAXP0R-21">
          <mxGeometry y="52" width="160" height="8" as="geometry" />
        </mxCell>
        <mxCell id="6Y5s2NgotVWqwfQAXP0R-24" value="+ method(type): type" style="text;strokeColor=none;fillColor=none;align=left;verticalAlign=top;spacingLeft=4;spacingRight=4;overflow=hidden;rotatable=0;points=[[0,0.5],[1,0.5]];portConstraint=eastwest;whiteSpace=wrap;html=1;" vertex="1" parent="6Y5s2NgotVWqwfQAXP0R-21">
          <mxGeometry y="60" width="160" height="26" as="geometry" />
        </mxCell>
        <mxCell id="6Y5s2NgotVWqwfQAXP0R-25" style="edgeStyle=orthogonalEdgeStyle;rounded=0;orthogonalLoop=1;jettySize=auto;html=1;exitX=0;exitY=1;exitDx=0;exitDy=0;exitPerimeter=0;entryX=-0.013;entryY=1.056;entryDx=0;entryDy=0;entryPerimeter=0;" edge="1" parent="WIyWlLk6GJQsqaUBKTNV-1" source="pMVwF3DRIxQIzpTaGjE7-93" target="pMVwF3DRIxQIzpTaGjE7-93">
          <mxGeometry relative="1" as="geometry" />
        </mxCell>
        <mxCell id="6Y5s2NgotVWqwfQAXP0R-26" value="BoardViewer" style="swimlane;fontStyle=1;align=center;verticalAlign=top;childLayout=stackLayout;horizontal=1;startSize=26;horizontalStack=0;resizeParent=1;resizeParentMax=0;resizeLast=0;collapsible=1;marginBottom=0;whiteSpace=wrap;html=1;fillColor=#fff2cc;strokeColor=#d6b656;" vertex="1" parent="WIyWlLk6GJQsqaUBKTNV-1">
          <mxGeometry x="520" y="812" width="160" height="86" as="geometry" />
        </mxCell>
        <mxCell id="6Y5s2NgotVWqwfQAXP0R-27" value="+ field: type" style="text;strokeColor=none;fillColor=none;align=left;verticalAlign=top;spacingLeft=4;spacingRight=4;overflow=hidden;rotatable=0;points=[[0,0.5],[1,0.5]];portConstraint=eastwest;whiteSpace=wrap;html=1;" vertex="1" parent="6Y5s2NgotVWqwfQAXP0R-26">
          <mxGeometry y="26" width="160" height="26" as="geometry" />
        </mxCell>
        <mxCell id="6Y5s2NgotVWqwfQAXP0R-28" value="" style="line;strokeWidth=1;fillColor=none;align=left;verticalAlign=middle;spacingTop=-1;spacingLeft=3;spacingRight=3;rotatable=0;labelPosition=right;points=[];portConstraint=eastwest;strokeColor=inherit;" vertex="1" parent="6Y5s2NgotVWqwfQAXP0R-26">
          <mxGeometry y="52" width="160" height="8" as="geometry" />
        </mxCell>
        <mxCell id="6Y5s2NgotVWqwfQAXP0R-29" value="+ method(type): type" style="text;strokeColor=none;fillColor=none;align=left;verticalAlign=top;spacingLeft=4;spacingRight=4;overflow=hidden;rotatable=0;points=[[0,0.5],[1,0.5]];portConstraint=eastwest;whiteSpace=wrap;html=1;" vertex="1" parent="6Y5s2NgotVWqwfQAXP0R-26">
          <mxGeometry y="60" width="160" height="26" as="geometry" />
        </mxCell>
        <mxCell id="6Y5s2NgotVWqwfQAXP0R-30" value="DreamTileViewer" style="swimlane;fontStyle=1;align=center;verticalAlign=top;childLayout=stackLayout;horizontal=1;startSize=26;horizontalStack=0;resizeParent=1;resizeParentMax=0;resizeLast=0;collapsible=1;marginBottom=0;whiteSpace=wrap;html=1;fillColor=#fff2cc;strokeColor=#d6b656;" vertex="1" parent="WIyWlLk6GJQsqaUBKTNV-1">
          <mxGeometry x="-580" y="790" width="160" height="86" as="geometry" />
        </mxCell>
        <mxCell id="6Y5s2NgotVWqwfQAXP0R-31" value="+ field: type" style="text;strokeColor=none;fillColor=none;align=left;verticalAlign=top;spacingLeft=4;spacingRight=4;overflow=hidden;rotatable=0;points=[[0,0.5],[1,0.5]];portConstraint=eastwest;whiteSpace=wrap;html=1;" vertex="1" parent="6Y5s2NgotVWqwfQAXP0R-30">
          <mxGeometry y="26" width="160" height="26" as="geometry" />
        </mxCell>
        <mxCell id="6Y5s2NgotVWqwfQAXP0R-32" value="" style="line;strokeWidth=1;fillColor=none;align=left;verticalAlign=middle;spacingTop=-1;spacingLeft=3;spacingRight=3;rotatable=0;labelPosition=right;points=[];portConstraint=eastwest;strokeColor=inherit;" vertex="1" parent="6Y5s2NgotVWqwfQAXP0R-30">
          <mxGeometry y="52" width="160" height="8" as="geometry" />
        </mxCell>
        <mxCell id="6Y5s2NgotVWqwfQAXP0R-33" value="+ method(type): type" style="text;strokeColor=none;fillColor=none;align=left;verticalAlign=top;spacingLeft=4;spacingRight=4;overflow=hidden;rotatable=0;points=[[0,0.5],[1,0.5]];portConstraint=eastwest;whiteSpace=wrap;html=1;" vertex="1" parent="6Y5s2NgotVWqwfQAXP0R-30">
          <mxGeometry y="60" width="160" height="26" as="geometry" />
        </mxCell>
        <mxCell id="6Y5s2NgotVWqwfQAXP0R-34" value="CardPlayer" style="swimlane;fontStyle=1;align=center;verticalAlign=top;childLayout=stackLayout;horizontal=1;startSize=26;horizontalStack=0;resizeParent=1;resizeParentMax=0;resizeLast=0;collapsible=1;marginBottom=0;whiteSpace=wrap;html=1;fillColor=#dae8fc;strokeColor=#6c8ebf;" vertex="1" parent="WIyWlLk6GJQsqaUBKTNV-1">
          <mxGeometry x="660" y="527" width="160" height="86" as="geometry" />
        </mxCell>
        <mxCell id="6Y5s2NgotVWqwfQAXP0R-35" value="+ field: type" style="text;strokeColor=none;fillColor=none;align=left;verticalAlign=top;spacingLeft=4;spacingRight=4;overflow=hidden;rotatable=0;points=[[0,0.5],[1,0.5]];portConstraint=eastwest;whiteSpace=wrap;html=1;" vertex="1" parent="6Y5s2NgotVWqwfQAXP0R-34">
          <mxGeometry y="26" width="160" height="26" as="geometry" />
        </mxCell>
        <mxCell id="6Y5s2NgotVWqwfQAXP0R-36" value="" style="line;strokeWidth=1;fillColor=none;align=left;verticalAlign=middle;spacingTop=-1;spacingLeft=3;spacingRight=3;rotatable=0;labelPosition=right;points=[];portConstraint=eastwest;strokeColor=inherit;" vertex="1" parent="6Y5s2NgotVWqwfQAXP0R-34">
          <mxGeometry y="52" width="160" height="8" as="geometry" />
        </mxCell>
        <mxCell id="6Y5s2NgotVWqwfQAXP0R-37" value="+ method(type): type" style="text;strokeColor=none;fillColor=none;align=left;verticalAlign=top;spacingLeft=4;spacingRight=4;overflow=hidden;rotatable=0;points=[[0,0.5],[1,0.5]];portConstraint=eastwest;whiteSpace=wrap;html=1;" vertex="1" parent="6Y5s2NgotVWqwfQAXP0R-34">
          <mxGeometry y="60" width="160" height="26" as="geometry" />
        </mxCell>
      </root>
    </mxGraphModel>
  </diagram>
</mxfile>
